<?xml version="1.0" encoding="UTF-8" standalone="no"?>
<!-- Created with Inkscape (http://www.inkscape.org/) -->

<svg
   width="1024mm"
   height="1024mm"
   viewBox="0 0 1024 1024"
   version="1.1"
   id="svg1"
   xml:space="preserve"
   xmlns="http://www.w3.org/2000/svg"
   xmlns:svg="http://www.w3.org/2000/svg"><defs
     id="defs1" /><g
     id="layer1"
     transform="translate(-29.699999,-52.682144)"><g
       id="g123"
       transform="matrix(1.9884769,0,0,1.9884769,-34190.309,-1713.0756)"
       style="stroke-width:1.00157;stroke-dasharray:none"><g
         id="g3"
         style="fill:#ffffff;fill-opacity:1;stroke-width:1.00157;stroke-dasharray:none"><path
           id="path25-9"
           d="m 17310.889,999.76433 v 46.15187 h -47.084 a 54.113263,54.113263 35.095437 0 1 -50.911,-35.7749 l -3.738,-10.37697 z"
           style="fill:#ffffff;fill-opacity:1;fill-rule:nonzero;stroke:none;stroke-width:1.00157;stroke-dasharray:none" /><path
           id="path26-2"
           style="fill:#ffffff;fill-opacity:1;fill-rule:nonzero;stroke:none;stroke-width:1.00157;stroke-dasharray:none"
           d="m 17275.946,999.76367 69.612,193.16793 c 7.558,20.975 27.459,34.9551 49.754,34.9551 h 153.808 c 22.297,0 42.198,-13.9801 49.756,-34.9551 l 21.588,-59.9101 c -75.702,-6.1492 -138.196,-60.9364 -156.014,-132.8555 z" /></g><g
         id="g2"
         style="stroke-width:1.00157;stroke-dasharray:none"><path
           id="path27-0"
           d="m 17499.361,962.11107 v 0 c 2.021,71.59323 59.853,129.40663 131.439,131.44433 -2.024,-71.5933 -59.851,-129.40673 -131.439,-131.44433"
           style="fill:#9ee244;fill-opacity:1;fill-rule:nonzero;stroke:none;stroke-width:1.00157;stroke-linecap:square;stroke-linejoin:miter;stroke-dasharray:none;stroke-opacity:1;paint-order:markers stroke fill" /><path
           id="path28-2"
           d="m 17724.123,1000.2043 v 0 c -50.831,1.4506 -91.887,42.514 -93.323,93.3511 50.826,-1.4506 91.887,-42.514 93.323,-93.3511"
           style="fill:#9ee244;fill-opacity:1;fill-rule:nonzero;stroke:none;stroke-width:1.00157;stroke-linecap:square;stroke-dasharray:none;stroke-opacity:1;paint-order:fill markers stroke" /></g><g
         id="g1"
         style="fill:#ffffff;fill-opacity:1;stroke-width:1.00157;stroke-dasharray:none"><path
           id="path29-3"
           d="m 17556.059,1294.8899 c 0,18.7546 -15.202,33.9562 -33.956,33.9562 -18.751,0 -33.956,-15.2016 -33.956,-33.9562 0,-18.7544 15.205,-33.9562 33.956,-33.9562 18.754,0 33.956,15.2018 33.956,33.9562"
           style="fill:#ffffff;fill-opacity:1;fill-rule:nonzero;stroke:none;stroke-width:1.00157;stroke-dasharray:none" /><path
           id="path30-7"
           d="m 17398.11,1294.8899 c 0,18.7546 -15.202,33.9562 -33.956,33.9562 -18.752,0 -33.956,-15.2016 -33.956,-33.9562 0,-18.7544 15.204,-33.9562 33.956,-33.9562 18.754,0 33.956,15.2018 33.956,33.9562"
           style="fill:#ffffff;fill-opacity:1;fill-rule:nonzero;stroke:none;stroke-width:1.00157;stroke-dasharray:none" /></g></g></g></svg>
